The Running Man 1987 BluRay 1080p DTS x264-LoNeWoLf

Encoded by Tequila-Bob a.k.a. bobnjeff a.k.a.LoNeWoLf

Source - NTSC BluRay Disc.


Movie has been tested and is DXVA Compliant

 
http://www.imdb.com/title/tt0093894/

More at IMDbPro » The Running Man (1987) 
  101 min  -  Action | Sci-Fi | Thriller   -  13 November 1987 (USA) 
6.4/10 X  Users: 6.4/10 (37,160 votes) 164 reviews | Critics: 55 reviews 
A wrongly-convicted man must try to survive a public execution gauntlet staged as a TV game show. 


Director: Paul Michael Glaser
Writers: Stephen King (novel), Steven E. de Souza (screenplay)
Stars:Arnold Schwarzenegger, Maria Conchita Alonso, Yaphet Kotto 

Genres:Action | Sci-Fi | Thriller 

Release Date:13 November 1987 (USA)

Rated: R [See Full Rating] adult situations/language, violence

Storyline
Set in a totalitarian society. Ben Richards is a cop who was blamed for a massacre which wasn't his fault. He would be sent to prison and breaks out with some other inmates. He tries to escape but the woman whom he dragged into his plan turns him over to the authorities. Damon Killian, who is the host of THE RUNNING MAN a game show wherein convicted felons are given the chance to run to freedom but have to elude the stalkers; men who hunt them down and kill them in gruesome manners. When he learns that Richards has been caught, he wants him to be the show's next contestant. After being brought to Killian, Richards turns him down, Killian then reveals to Richards that his two friends who were in prison with him and who broke out with him have been caught, so unless Richards does the show they will. But on the night of the show, Richards is set to go but Killian also reveals that Richards two friends are going with him. Richards tells Killian that he will be back. But first !

Cast
Cast overview, first billed only: 
  Arnold Schwarzenegger  ...  Ben Richards  
  Maria Conchita Alonso  ...  Amber Mendez  
  Yaphet Kotto  ...  William Laughlin  
  Jim Brown  ...  Fireball  
  Jesse Ventura  ...  Captain Freedom  
  Erland van Lidth  ...  Dynamo (as Erland Van Lidth)  
  Marvin J. McIntyre  ...  Harold Weiss  
  Gus Rethwisch  ...  Buzzsaw (as Bernard Gus Rethwisch)  
  Professor Toru Tanaka  ...  Subzero  
  Mick Fleetwood  ...  Mic  
  Dweezil Zappa  ...  Stevie  
  Richard Dawson  ...  Damon Killian  
  Karen Leigh Hopkins  ...  Brenda  
  Sven-Ole Thorsen  ...  Sven (as Sven Thorsen)  
  Edward Bunker  ...  Lenny (as Eddie Bunker) 

[img]http://torrent-stats.info/639b/6b7c665b.png[/img] 

See the full size 1920x1072 PNG files at the link below

 
http://s1015.photobucket.com/albums/af279/tequila-bob/TheRunningMan1981/



Format : Matroska 
File size : 7.97 GiB 
Duration : 1h 40mn 
Overall bit rate : 11.3 Mbps 
Encoded date : UTC 2010-12-16 14:18:30 
Writing application : mkvmerge v4.4.0 ('Die Wiederkehr') built on Oct 31 2010 21:52:48 
Writing library : libebml v1.0.0 + libmatroska v1.0.0 

Video 
ID : 1 
Format : AVC 
Format/Info : Advanced Video Codec 
Format profile : High@L4.1 
Format settings, CABAC : Yes 
Format settings, ReFrames : 3 frames 
Muxing mode : Container profile=Unknown@4.1 
Codec ID : V_MPEG4/ISO/AVC 
Duration : 1h 40mn 
Bit rate : 9 792 Kbps 
Width : 1 920 pixels 
Height : 1 072 pixels 
Display aspect ratio : 16:9 
Frame rate : 23.976 fps 
Color space : YUV 
Chroma subsampling : 4:2:0 
Bit depth : 8 bits 
Scan type : Progressive 
Bits/(Pixel*Frame) : 0.198 
Stream size : 6.75 GiB (85%) 
Writing library : x264 core 98 r1649 c54c47d 
Encoding settings : cabac=1 / ref=4 / deblock=1:-3:-1 / analyse=0x3:0x113 / me=umh / subme=9 / psy=1 / psy_rd=1.00:0.15 / mixed_ref=1 / me_range=32 / chroma_me=1 / trellis=1 / 8x8dct=1 / cqm=0 / deadzone=21,11 / fast_pskip=0 / chroma_qp_offset=-3 / threads=6 / sliced_threads=0 / nr=0 / decimate=1 / interlaced=0 / constrained_intra=0 / bframes=3 / b_pyramid=1 / b_adapt=1 / b_bias=0 / direct=1 / weightb=1 / weightp=2 / keyint=250 / keyint_min=25 / scenecut=40 / intra_refresh=0 / rc_lookahead=60 / rc=2pass / mbtree=1 / bitrate=9792 / ratetol=1.0 / qcomp=0.60 / qpmin=10 / qpmax=51 / qpstep=4 / cplxblur=20.0 / qblur=0.5 / vbv_maxrate=50000 / vbv_bufsize=50000 / ip_ratio=1.40 / aq=1:1.50 / nal_hrd=none 
Language : English 

Audio 
ID : 2 
Format : DTS 
Format/Info : Digital Theater Systems 
Codec ID : A_DTS 
Duration : 1h 40mn 
Bit rate mode : Constant 
Bit rate : 1 510 Kbps 
Channel(s) : 6 channels 
Channel positions : Front: L C R, Side: L R, LFE 
Sampling rate : 48.0 KHz 
Bit depth : 24 bits 
Video delay : 10ms 
Stream size : 1.06 GiB (13%) 
Title : 3/2+1 
Language : English 

Text #1 
ID : 3 
Format : PGS 
Codec ID : S_HDMV/PGS 
Codec ID/Info : The same subtitle format used on BDs/HD-DVDs 
Language : English 

Text #2 
ID : 4 
Format : PGS 
Codec ID : S_HDMV/PGS 
Codec ID/Info : The same subtitle format used on BDs/HD-DVDs 
Language : English 
 
Text #3 
ID : 5 
Format : PGS 
Codec ID : S_HDMV/PGS 
Codec ID/Info : The same subtitle format used on BDs/HD-DVDs 
Language : Spanish 

Menu & 23 Chapters

See the full size 1920x1072 PNG files at the link below

 
http://s1015.photobucket.com/albums/af279/tequila-bob/TheRunningMan1981/



